<svg width="104" height="59" viewBox="0 0 104 59" fill="none" xmlns="http://www.w3.org/2000/svg">
<path d="M2.93538 17H1.60738V6.328H8.59938V7.512H2.93538V17ZM14.6565 16.024C13.9632 16.8027 13.0405 17.192 11.8885 17.192C10.7365 17.192 9.8085 16.8027 9.1045 16.024C8.41117 15.2453 8.0645 14.28 8.0645 13.128C8.0645 11.976 8.41117 11.016 9.1045 10.248C9.8085 9.46933 10.7365 9.08 11.8885 9.08C13.0405 9.08 13.9632 9.46933 14.6565 10.248C15.3605 11.016 15.7125 11.976 15.7125 13.128C15.7125 14.28 15.3605 15.2453 14.6565 16.024ZM10.0005 15.256C10.4698 15.832 11.0992 16.12 11.8885 16.12C12.6778 16.12 13.3018 15.832 13.7605 15.256C14.2192 14.6693 14.4485 13.96 14.4485 13.128C14.4485 12.296 14.2192 11.592 13.7605 11.016C13.3018 10.44 12.6778 10.152 11.8885 10.152C11.0992 10.152 10.4698 10.4453 10.0005 11.032C9.54183 11.608 9.3125 12.3067 9.3125 13.128C9.3125 13.96 9.54183 14.6693 10.0005 15.256ZM21.4768 17.192C20.3888 17.192 19.5194 16.7387 18.8688 15.832V19.944H17.6688V9.272H18.8688V10.424C19.1568 10.0187 19.5301 9.69333 19.9888 9.448C20.4474 9.20267 20.9434 9.08 21.4768 9.08C22.5008 9.08 23.3274 9.448 23.9568 10.184C24.5968 10.9093 24.9167 11.8907 24.9167 13.128C24.9167 14.3653 24.5968 15.352 23.9568 16.088C23.3274 16.824 22.5008 17.192 21.4768 17.192ZM21.1727 16.12C21.9301 16.12 22.5328 15.8427 22.9808 15.288C23.4288 14.7227 23.6528 14.0027 23.6528 13.128C23.6528 12.2533 23.4288 11.5387 22.9808 10.984C22.5328 10.4293 21.9301 10.152 21.1727 10.152C20.7141 10.152 20.2661 10.2747 19.8288 10.52C19.4021 10.7547 19.0821 11.0427 18.8688 11.384V14.872C19.0821 15.224 19.4021 15.5227 19.8288 15.768C20.2661 16.0027 20.7141 16.12 21.1727 16.12ZM29.433 17H28.233V10.328H25.993V9.272H31.689V10.328H29.433V17ZM39.2945 17H38.0945V16.12C37.4438 16.8347 36.5905 17.192 35.5345 17.192C34.8198 17.192 34.1905 16.9627 33.6465 16.504C33.1025 16.0453 32.8305 15.4213 32.8305 14.632C32.8305 13.8213 33.0972 13.1973 33.6305 12.76C34.1745 12.312 34.8092 12.088 35.5345 12.088C36.6332 12.088 37.4865 12.44 38.0945 13.144V11.752C38.0945 11.24 37.9132 10.84 37.5505 10.552C37.1878 10.264 36.7185 10.12 36.1425 10.12C35.2358 10.12 34.4465 10.4773 33.7745 11.192L33.2145 10.36C34.0358 9.50667 35.0652 9.08 36.3025 9.08C37.1878 9.08 37.9078 9.29333 38.4625 9.72C39.0172 10.1467 39.2945 10.8027 39.2945 11.688V17ZM35.9665 16.328C36.9265 16.328 37.6358 16.008 38.0945 15.368V13.912C37.6358 13.272 36.9265 12.952 35.9665 12.952C35.4118 12.952 34.9532 13.112 34.5905 13.432C34.2385 13.7413 34.0625 14.1467 34.0625 14.648C34.0625 15.1387 34.2385 15.544 34.5905 15.864C34.9532 16.1733 35.4118 16.328 35.9665 16.328ZM42.852 17H41.7V9.272H42.9V15.176L46.948 9.272H48.132V17H46.932V10.984L42.852 17ZM47.716 6.984C47.0227 7.92267 46.0893 8.392 44.916 8.392C43.7533 8.392 42.8147 7.92267 42.1 6.984L42.692 6.472C43.2467 7.24 43.988 7.624 44.916 7.624C45.8547 7.624 46.5907 7.24 47.124 6.472L47.716 6.984ZM53.1361 17H51.9361V10.328H49.6961V9.272H55.3921V10.328H53.1361V17ZM60.4536 17.192C59.3016 17.192 58.3576 16.8187 57.6216 16.072C56.8856 15.3147 56.5176 14.3333 56.5176 13.128C56.5176 11.9973 56.8803 11.0427 57.6056 10.264C58.331 9.47467 59.2376 9.08 60.3256 9.08C61.467 9.08 62.3683 9.47467 63.0296 10.264C63.7016 11.0427 64.0376 12.0293 64.0376 13.224V13.528H57.7816C57.835 14.2853 58.1123 14.92 58.6136 15.432C59.115 15.944 59.7656 16.2 60.5656 16.2C61.5256 16.2 62.3203 15.8747 62.9496 15.224L63.5256 16.008C62.7363 16.7973 61.7123 17.192 60.4536 17.192ZM62.8536 12.648C62.843 11.9867 62.619 11.3947 62.1816 10.872C61.7443 10.3387 61.1203 10.072 60.3096 10.072C59.5416 10.072 58.9336 10.3333 58.4856 10.856C58.0483 11.3787 57.8136 11.976 57.7816 12.648H62.8536ZM74.4423 17H70.1063V9.272H74.3623C75.0343 9.272 75.5623 9.45333 75.9463 9.816C76.3409 10.1787 76.5383 10.6587 76.5383 11.256C76.5383 11.6933 76.4156 12.072 76.1703 12.392C75.9356 12.7013 75.6423 12.9093 75.2903 13.016C75.6849 13.112 76.0156 13.3413 76.2823 13.704C76.5596 14.0667 76.6983 14.4667 76.6983 14.904C76.6983 15.5333 76.4956 16.04 76.0903 16.424C75.6956 16.808 75.1463 17 74.4423 17ZM74.2023 15.944C74.5863 15.944 74.8903 15.8373 75.1143 15.624C75.3383 15.4107 75.4503 15.1227 75.4503 14.76C75.4503 14.4293 75.3383 14.1467 75.1143 13.912C74.8903 13.6773 74.5863 13.56 74.2023 13.56H71.3063V15.944H74.2023ZM74.1543 12.504C74.5169 12.504 74.7996 12.408 75.0023 12.216C75.2049 12.0133 75.3063 11.752 75.3063 11.432C75.3063 11.0907 75.2049 10.824 75.0023 10.632C74.7996 10.4293 74.5169 10.328 74.1543 10.328H71.3063V12.504H74.1543ZM80.1656 17H78.9656V9.272H80.1656V12.488H84.1976V9.272H85.3976V17H84.1976V13.544H80.1656V17ZM88.9457 17H87.7938V9.272H88.9938V15.176L93.0418 9.272H94.2258V17H93.0258V10.984L88.9457 17ZM99.3579 17.192C97.8752 17.192 96.7125 16.7707 95.8699 15.928L96.4619 15.16C97.1872 15.8533 98.1525 16.2 99.3579 16.2C100.051 16.2 100.601 16.0773 101.006 15.832C101.422 15.5867 101.63 15.2613 101.63 14.856C101.63 14.0027 100.819 13.576 99.1979 13.576H97.4699V12.6H99.1979C99.8699 12.6 100.419 12.4933 100.846 12.28C101.273 12.056 101.486 11.7307 101.486 11.304C101.486 10.9413 101.273 10.648 100.846 10.424C100.419 10.1893 99.8805 10.072 99.2299 10.072C98.1525 10.072 97.2885 10.4027 96.6379 11.064L96.0139 10.328C96.8139 9.50667 97.8699 9.096 99.1819 9.096C100.238 9.08533 101.091 9.26667 101.742 9.64C102.403 10.0027 102.734 10.5093 102.734 11.16C102.734 11.6933 102.515 12.1253 102.078 12.456C101.651 12.7867 101.177 12.984 100.654 13.048C101.198 13.0907 101.705 13.272 102.174 13.592C102.654 13.912 102.894 14.36 102.894 14.936C102.894 15.5973 102.574 16.1413 101.934 16.568C101.305 16.984 100.446 17.192 99.3579 17.192Z" fill="white"/>
<path d="M52 29C46.4859 29 42 33.484 42 38.9952V49.0054C42 54.5164 46.4859 59 52 59C57.5141 59 62 54.5166 62 49.0054V38.9952C62 33.484 57.514 29 52 29ZM60.8889 49.0054C60.8889 53.9039 56.9013 57.8889 52 57.8889C47.0987 57.8889 43.1111 53.9039 43.1111 49.0054V38.9952C43.1111 34.0967 47.0987 30.1111 52 30.1111C56.9013 30.1111 60.8889 34.0965 60.8889 38.9952V49.0054Z" fill="white"/>
<path d="M52.0001 32.3333C51.6933 32.3333 51.4445 32.5818 51.4445 32.8889V37.9198C51.4445 38.2269 51.6933 38.4754 52.0001 38.4754C52.3069 38.4754 52.5557 38.2269 52.5557 37.9198V32.8889C52.5556 32.5818 52.3069 32.3333 52.0001 32.3333Z" fill="white"/>
</svg>
